<svg xmlns="http://www.w3.org/2000/svg" xmlns:xlink="http://www.w3.org/1999/xlink" width="432.058" height="432.058"><defs><linearGradient id="b"><stop offset="0" style="stop-color:#699ad7;stop-opacity:1"/><stop offset=".225" style="stop-color:#7eb1dd;stop-opacity:1"/><stop offset="1" style="stop-color:#7ebae4;stop-opacity:1"/></linearGradient><linearGradient id="a"><stop offset="0" style="stop-color:#415e9a;stop-opacity:1"/><stop offset=".23" style="stop-color:#4a6baf;stop-opacity:1"/><stop offset="1" style="stop-color:#5277c3;stop-opacity:1"/></linearGradient><linearGradient xlink:href="#a" id="c" x1="218.039" x2="355.249" y1="0" y2="232.686" gradientTransform="rotate(30 258.45 365.427)scale(.55195)" gradientUnits="userSpaceOnUse"/><linearGradient xlink:href="#b" id="d" x1="0" x2="261.34" y1="0" y2="311.77" gradientTransform="rotate(30 251.54 337.547)scale(.55195)" gradientUnits="userSpaceOnUse"/><linearGradient xlink:href="#a" id="e" x1="218.039" x2="355.249" y1="0" y2="232.686" gradientTransform="rotate(30 -115.416 465.603)scale(.55195)" gradientUnits="userSpaceOnUse"/></defs><path d="M310.95 9.449V69.92l-78.555 45.355 32.732 18.897 45.824-26.456v52.913l32.732 18.898V28.346z" style="display:inline;fill:url(#c);fill-opacity:1;stroke:none;stroke-width:0;stroke-dasharray:none;stroke-opacity:1" transform="rotate(-30 197.67 361.695)"/><path d="m180.024 28.346.024 56.68 45.8 26.47 32.732-18.898-45.8-26.47V9.435Z" style="display:inline;fill:url(#d);fill-opacity:1;stroke:none;stroke-width:0;stroke-dasharray:none;stroke-opacity:1" transform="rotate(-30 197.67 361.695)"/><path d="M261.853 279.685v-49.134l78.556-45.354-32.731-18.898-45.825 26.457v-52.913l-32.731-18.898v177.74z" style="display:inline;fill:#7eb5e0;fill-opacity:1;stroke:none;stroke-width:0;stroke-dasharray:none;stroke-opacity:1" transform="rotate(-30 197.67 361.695)"/><path d="M310.95 209.764v49.134l-78.555 45.354 32.732 18.898 45.824-26.457v52.913l32.732 18.898V190.866Z" style="display:inline;fill:url(#e);fill-opacity:1;stroke:none;stroke-width:0;stroke-dasharray:none;stroke-opacity:1" transform="rotate(-30 197.67 361.695)"/><path d="M261.853 480v-60.472l78.556-45.355-32.731-18.897-45.825 26.456V328.82l-32.731-18.898v151.181z" style="display:inline;fill:#7eb5e0;fill-opacity:1;stroke:none;stroke-width:0;stroke-dasharray:none;stroke-opacity:1" transform="rotate(-30 197.67 361.695)"/><path d="M392.78 461.102V404.41l-45.824-26.456-32.732 18.897 45.824 26.457V480z" style="display:inline;fill:#4f73bc;fill-opacity:1;stroke:none;stroke-width:0;stroke-dasharray:none;stroke-opacity:1" transform="rotate(-30 197.67 361.695)"/></svg>